<!--?xml version="1.0" encoding="UTF-8"?-->
<svg id="Capa_1" data-name="Capa 1" xmlns="http://www.w3.org/2000/svg" viewBox="0 0 622.81 1125.22" width="622.8099975585938" height="1125.219970703125">
  <path d="M359.12,942.22c4.54-4.96,5.45-11.46,7.54-17.49,5.13-14.81,8.74-29.9,10.56-45.5,1.7-14.57-1.22-28.2-6.68-41.48-.91-2.21-2.02-3.31.4-5.71,2.69-2.67,2.97-7.1,4.21-10.81,4.88-14.61,8.44-29.45,7.44-45.01-.47-7.24-1.32-14.4-5.93-20.53-3.11-4.13-8.2-5.84-13.03-3.98-3.4,1.31-6.54,7.83-6.05,12.01.35,2.94,1.05,5.79,2.1,8.47,3.74,9.56,2.88,19.09-.13,28.5-1.88,5.87-4.14,11.63-5.87,17.54-3.19,10.88-2.56,21.65.85,32.51,3.79,12.08,2.88,24.45-.5,36.44-4.86,17.26-8.36,34.74-10.24,52.54-.1.97,0,1.71-.66,2.49-8.33,9.99-9.51,22.53-11.32,34.52-2.98,19.76-5.29,39.63-7.8,59.46-1.92,15.15-2.69,30.4-4.85,45.52-1.81,12.64-4.76,15.59-18.53,12.48-19.65-4.45-39.45-7.79-59.49-10.13-20.5-2.39-41.17-3.05-61.53-6.76-19-3.47-36.45-10.33-52.52-21.03-10.23-6.81-20.82-12.93-32.93-16.19-6.87-1.85-13.27-2.64-20.08.03-3.24,1.27-6.87,1.64-10.46,1.62-8.2-.05-16.4-.09-24.76,1.66-.27-1.84-.16-3.42.15-5.19.42-2.44.32-4.93-1.83-7.03-2.86-2.79-3.81-6.45-3.56-10.45.46-7.47-.93-14.76-2.51-22-2.68-12.29-.59-23.65,6.54-33.99,3.58-5.19,7.02-10.46,9.93-16.04,2.63-5.04,3.04-10.53,1.51-15.97-2.94-10.45-3.25-20.91-.99-31.52,1.32-6.17,1.01-12.52-.62-18.45-2.45-8.93-1.84-17.63-.41-26.55,2.61-16.24,3.89-32.64,5.55-48.99.35-3.46.81-6.88,2.51-10" style="fill: none; stroke: rgb(0, 0, 0); stroke-linecap: round; stroke-linejoin: round; stroke-width: 2px;" class="svg-elem-1"></path>
  <path d="M349.12,1018.22c-2.11,10.23-2.01,20.69-3.39,31.01-1.5,11.24-3.3,22.4-5.66,33.47-1.62,7.61-3.18,15.16-2.99,23.01.12,4.98-1.15,5.78-5.96,5.54-7.89-.38-15.07-3.47-22.48-5.6-15.06-4.33-30.47-6.36-46.02-7.41-28.34-1.9-56.75-3.29-84.49-10.07-23.49-5.74-45.41-15.3-66.03-27.92-6.68-4.09-13.34-8.18-20.4-11.7-7.15-3.56-14.51-4.33-22.07-3.72-5.96.48-11.75.5-17.51-1.12" style="fill: none; stroke: rgb(0, 0, 0); stroke-linecap: round; stroke-linejoin: round; stroke-width: 2px;" class="svg-elem-2"></path>
  <path d="M105.12,698.22c-2.96,20.3-12.1,38.02-23.01,55-6.35,9.88-13.69,19.08-20.08,28.95-2.33,3.6-3.61,7.76-6.4,11.07-1.04,1.24-.07,2.24.38,3.52,3.16,9,6.84,17.86,9.44,27.01,2.82,9.92,1.02,20.1-1.4,29.94-3.6,14.68-3.76,29.17-.68,44.07,1.71,8.27.61,17.01-1.23,25.45-2.43,11.19-4.91,22.32-3.62,34.01,1.32,12.03-3.46,22.94-7.33,34.01-4.01,11.49-8.69,22.84-8.18,35.48.2,5.03,2.15,9.6,2.61,14.5" style="fill: none; stroke: rgb(0, 0, 0); stroke-linecap: round; stroke-linejoin: round; stroke-width: 2px;" class="svg-elem-3"></path>
  <path d="M461.12,696.22c2.71,4.3,2.75,9.27,2.91,14,.71,21.32,1.36,42.64.74,64-.7,23.89.09,47.71,3.58,71.54,3.31,22.58,7.65,44.95,11.18,67.47,1.43,9.09,2.1,18.32,3.08,27.49.81,7.52,3.02,14.56,7.02,20.99,3.27,5.25,5.02,10.71,3.57,17.02-.66,2.85.12,5.91,1.48,8.45,5.17,9.68,2.47,18.5-1.98,27.57-7.92,16.15-21.35,26.36-36.63,34.36-15.86,8.31-32.07,15.95-48.91,22.19-6.94,2.57-13.02,6.81-17.53,12.91" style="fill: none; stroke: rgb(0, 0, 0); stroke-linecap: round; stroke-linejoin: round; stroke-width: 2px;" class="svg-elem-4"></path>
  <path d="M584.62,518.22c4.85,6.28,11.31,11.05,16.07,17.45,2.74,3.68,4.79,8.02,4.16,12.01-1.16,7.35,1.58,13.38,4.32,19.52,6.13,13.75,9.47,28.2,11.44,43.02,1.26,9.49,1.82,18.87.2,28.53-2.07,12.35-9.34,20.69-18.16,28.51-13.76,12.21-30.6,15.62-48.04,17.43-12.67,1.32-25.34,3.09-38.01,3.73-10.07.51-20.35,1.56-30.52-.51-1.79-.36-4.37-.07-6.56,1.68-4.24,3.39-9.61,5.46-14.9,5.44-10.64-.04-20.58-2.53-28.06-11.26-5.67-6.62-10.14-14.46-17.95-19.02-5.52-3.22-9.26-9.15-15.98-10.53" style="fill: none; stroke: rgb(0, 0, 0); stroke-linecap: round; stroke-linejoin: round; stroke-width: 2px;" class="svg-elem-5"></path>
  <path d="M347.62,365.72c-6.37,3.29-13.19,5.53-19.55,8.91-16.9,9-27.93,21.96-29.98,41.59-1.14,10.89,1.24,21.39,2.96,32.01,3.33,20.51,8.67,40.6,12.59,60.99,2.42,12.6,4.71,25.22,6.65,38.76-6.51-2.07-12.39-1.49-18.17-.68-10.71,1.51-15.87,9.47-19.43,18.46-5.88,14.86,4.14,26.79,18.43,30.45,8.91,2.28,17.33,1.55,24.48-4.99,1.03-.94,2.05-1.68,3.51-1.49" style="fill: none; stroke: rgb(0, 0, 0); stroke-linecap: round; stroke-linejoin: round; stroke-width: 2px;" class="svg-elem-6"></path>
  <path d="M360.12,754.22c-9.62,3.32-19.81,4.33-29.53,7.4-14.1,4.46-28.2,2.92-41.95-1.94-7-2.47-14.16-3.28-21.51-3.51-8.04-.25-16.06-.18-24.05-2.24-5.05-1.31-10.61.07-15.96-.62-3.1-.4-6.01-1.28-9.01-2.02-4.59-1.12-9.27-2.36-13.52,1.39-2.12,1.88-4.24,1.05-5.97-.96-4.86-5.66-12.56-7.68-19-5-6.15,2.55-6.62,2.57-9.95-3.03-3.66-6.16-10.18-8.54-15.48-12.56-7.78-5.9-16.97-8.77-25.56-12.93-10.82-5.25-18.69-13.75-24.34-24.07-2.43-4.44-1.75-10.29-5.62-14.45-2.73-2.93-3.89-7.28-8.04-8.96" style="fill: none; stroke: rgb(0, 0, 0); stroke-linecap: round; stroke-linejoin: round; stroke-width: 2px;" class="svg-elem-7"></path>
  <path d="M405.12,688.22c-3.76-.69-6.07-3.53-8.46-6.04-7.27-7.63-13.42-9.44-24.06-3.51-12.91,7.2-24.89,15.85-37.43,23.61-21.25,13.16-43.84,22.75-68.57,26.78-3.35.55-6.88,2.38-10.47.66.27-.46,4.3-4.15,5-4.5,16.1-8,31.1-18.06,47.5-25.51,12.59-5.72,25.39-11.05,36.48-19.52,7.71-5.89,15.07-12.16,17.99-21.98.77-2.6,2.25-3.06,4.52-1.99" style="fill: none; stroke: rgb(0, 0, 0); stroke-linecap: round; stroke-linejoin: round; stroke-width: 2px;" class="svg-elem-8"></path>
  <path d="M359.12,944.22c4.83,10.3,5.22,21.62,7.49,32.5,4.78,22.92,5.03,46.37,8.05,69.49,1.22,9.37,2.75,18.7,4.39,28.02.73,4.12.89,8.35,1.58,12.49.36,2.14.32,4.58,2.98,5.5" style="fill: none; stroke: rgb(0, 0, 0); stroke-linecap: round; stroke-linejoin: round; stroke-width: 2px;" class="svg-elem-9"></path>
  <path d="M400.12,618.72c11.94-4.84,24.04-4.88,35.97-.42,10.49,3.92,19.78,10.4,30.02,14.95,9.99,4.43,20.51,7.28,31.04,9.85,9.61,2.35,19.23,4.78,28.97,6.61,5.78,1.09,11.6,1.95,17.5,2,1.56.01,3.22.34,4.69-1.37-3.57-2.28-7.84-2.9-11.73-3.98-16.72-4.65-32.11-11.28-44.03-24.57-4.63-5.16-9.48-10.19-14.92-14.58-7.01-5.66-15.1-6.45-23.5-4.93-13.45,2.43-27.15,3.92-39.98,9.02-3.15,1.25-7.27,1.02-9.03,4.93" style="fill: none; stroke: rgb(0, 0, 0); stroke-linecap: round; stroke-linejoin: round; stroke-width: 2px;" class="svg-elem-10"></path>
  <path d="M285.62,607.22c.88,8.5-4.49,14.66-8.65,20.9-8.61,12.92-17.01,26.01-26.73,38.19-3.67,4.6-8.11,8.25-12.37,13.38-1.71-6.44.86-11.35,2.91-15.91,3.45-7.67,9.36-13.84,14.33-20.58,3.16-4.29,6.05-8.73,8.58-13.46,3.38-6.33,3.46-12.81,1.94-19.53" style="fill: none; stroke: rgb(0, 0, 0); stroke-linecap: round; stroke-linejoin: round; stroke-width: 2px;" class="svg-elem-11"></path>
  <path d="M378.62,645.22c5.73,2.2,10.51,6.17,16.45,8.16,5.67,1.9,7.77,7.46,8.42,12.86.92,7.72.94,15.48,3.4,23.06.76,2.35-1.17,5.81-2.4,8.36-5.66,11.8-12.17,23.14-20.78,33.24-2.07-2.95-4.78-1.87-7.06-1.11-10.2,3.41-20.19,7.36-30.49,10.54-16.52,5.11-33.36,7.9-50.53,9.47-16.66,1.53-33.43,1.5-50.01,3.92" style="fill: none; stroke: rgb(0, 0, 0); stroke-linecap: round; stroke-linejoin: round; stroke-width: 2px;" class="svg-elem-12"></path>
  <path d="M5.62,461.22c1.58,7.5.26,15.01-.05,22.5-.67,16.02-.2,32.11-2.95,48-1.15,6.62-2.02,13.3-1.43,19.99.69,7.88,4.09,15.03,7.58,21.93,2.38,4.71,5.46,8.95,4.87,14.57-.23,2.21,1.5,3.04,2.99,4,2.65,1.7,3.97,4.42,5.53,6.98.49.81,1.14,2.06.89,2.47-3.88,6.38,2.18,9.84,4,14.58,2.74,7.14,3.43,14.99,6.68,21.92,3.57,7.61,4.62,15.27,3.54,23.56-.51,3.93-.33,8.35,3.86,10.98" style="fill: none; stroke: rgb(0, 0, 0); stroke-linecap: round; stroke-linejoin: round; stroke-width: 2px;" class="svg-elem-13"></path>
  <path d="M210.62,59.72c-9.08,1.65-18.54,1.72-26.99,6.03-10.8,5.5-16.66,14.4-18.07,26.47-.73,6.17,1.95,11.43,3.56,17.01,1.64,5.72,3.87,11.31,2.55,17.51-.87,4.08-2.88,7.6-5.09,10.96-7.01,10.65-8.62,22.24-6.41,34.52.69,3.82,1.3,7.75,1.29,11.51-.01,15.52,3.2,30.27,9.16,44.5" style="fill: none; stroke: rgb(0, 0, 0); stroke-linecap: round; stroke-linejoin: round; stroke-width: 2px;" class="svg-elem-14"></path>
  <path d="M60.62,1082.72c16.33,13.08,34.74,22.31,55.04,26.8,20.73,4.59,41.15,3.71,59.53-9.19,2.14-1.51,3.69-3.33,5.64-4.76-3.97-6.42-11.57-7.51-19.19-2.81-5.57,3.43-11.34,6.36-17.52,8.46-10.09,3.42-19.85,2.1-29.51-1.96-9.99-4.19-20.06-8.2-29.96-12.6-5.75-2.56-10.93-6.22-16.05-9.9-2.25-1.61-4.32-3.54-7.29-4.65-3.85,3.09-2.06,6.92-1.19,10.62" style="fill: none; stroke: rgb(0, 0, 0); stroke-linecap: round; stroke-linejoin: round; stroke-width: 2px;" class="svg-elem-15"></path>
  <path d="M576.62,520.22c-21.26-12.7-47.98-3.02-57.49,9.12,3.19-.32,5.75-2.11,8.4-1.03-3.48,3.52-58.86,20.38-69.21,20.92,2.1-9.38-3.37-16.87-6.32-24.97-.79-2.17-1.9-4.14-1.89-6.54.06-12.52-1.64-24.96-1.58-37.5.04-7.3-1.89-8.85-8.91-9.51-12.81-1.21-25.36.27-38.03,2.34-14.95,2.44-29.81,5.66-44.98,6.63-2.84.18-5.8.5-8.81-1.17,5.15-4.12,11.42-5.12,17.33-6.15,23.97-4.19,48.12-6.89,72.47-7.7,3.02-.1,6,1.59,9,.07" style="fill: none; stroke: rgb(0, 0, 0); stroke-linecap: round; stroke-linejoin: round; stroke-width: 2px;" class="svg-elem-16"></path>
  <path d="M444.62,393.22c-.04-7.53-1.57-15.22-.98-22.46.53-6.43-2.72-8.97-6.1-11.95-6.72-5.93-13.17-12.36-22.41-14.65-7.63-1.89-15.04-1.56-22.52.53-4.14,1.16-8.27.89-11.98-1.49-10.77-6.9-22.46-8.94-35.02-7.03-3.35.51-6.64-.87-11.16-1.72,3.46,6.89,6.54,12.59,11.2,17.23,4.01,4,5.25,9.14,2.97,14.03" style="fill: none; stroke: rgb(0, 0, 0); stroke-linecap: round; stroke-linejoin: round; stroke-width: 2px;" class="svg-elem-17"></path>
  <path d="M329.12,375.72c-1.12,10.55-.2,21,.91,31.51,1.35,12.81,3.06,25.59,3.65,38.49.52,11.35.59,22.66.02,34.01-.21,4.13-1.1,8.05-2.14,12.11-1.99,1.33-4.59.61-6.37.17-4.61-1.14-5.59,1.69-6.5,4.73-.92,3.07,1.49,8.72,3.96,9.44,2.73.79,5.45-.19,5.82-2.97.44-3.22,1.23-7.03-2.34-9.48" style="fill: none; stroke: rgb(0, 0, 0); stroke-linecap: round; stroke-linejoin: round; stroke-width: 2px;" class="svg-elem-18"></path>
  <path d="M132.12,324.22c1.89,8.49,7.5,14.83,12.52,21.48,7.56,10.01,16.72,18.61,25.08,27.92,4.52,5.03,8.23,10.56,11.72,16.2,1.71,2.77,3.49,3.52,6.17,3.37,4.65-.26,9.5,1.13,13.57-2.9,3.64-3.6,2.56-8.11,2.72-12.08.28-6.86,3.52-11.62,8.17-16.03,1.77-1.68,3.71-.57,5.54-.96" style="fill: none; stroke: rgb(0, 0, 0); stroke-linecap: round; stroke-linejoin: round; stroke-width: 2px;" class="svg-elem-19"></path>
  <path d="M347.62,482.22c5.34,5.66,7.4,12.99,9.94,20.02,1.02,2.82,1.8,5.96,3.25,8.36,2.83,4.69,7.65,6.49,13.31,6.7,9.53.35,19.06.62,28.52,2.33,9.11,1.64,17.65,5.04,25.87,8.83,6.71,3.09,12.49,2.37,18.57-.34,1.04-.46,1.91-.96,3.05-.9" style="fill: none; stroke: rgb(0, 0, 0); stroke-linecap: round; stroke-linejoin: round; stroke-width: 2px;" class="svg-elem-20"></path>
  <path d="M496.12,1009.22c3.11,1.57,1.29,4.38,1.34,6.5.05,2.05-1.19,4.32-2.43,5.93-6.62,8.58-11.92,18.1-19.35,26.13-7.79,8.41-17.46,13.46-28.08,16.9-20.29,6.57-39.41,15.68-58.01,26-1.49.83-2.94,2.27-4.98,1.54" style="fill: none; stroke: rgb(0, 0, 0); stroke-linecap: round; stroke-linejoin: round; stroke-width: 2px;" class="svg-elem-21"></path>
  <path d="M350.12,1018.22c3.12,17.38,4,35.04,6.42,52.51.56,4.05-.57,8.18-2.01,11.96-1.91,5.01-1.66,10-.86,15.02.69,4.35,2.1,4.85,6.46,4.06,7.28-1.33,13.82-4.9,20.97-6.64,3.26-.79,3.28-4.89,5.52-6.91" style="fill: none; stroke: rgb(0, 0, 0); stroke-linecap: round; stroke-linejoin: round; stroke-width: 2px;" class="svg-elem-22"></path>
  <path d="M521.62,683.22c2.64-1.99.06-2.44-1.02-2.96-3.13-1.5-6.57-1.73-9.98-2.05-16.39-1.53-32.81-3.02-48.98-6.09-15.52-2.95-30.82-6.9-45.57-12.79-.79-.31-2.28-1.28-3.45-.12" style="fill: none; stroke: rgb(0, 0, 0); stroke-linecap: round; stroke-linejoin: round; stroke-width: 2px;" class="svg-elem-23"></path>
  <path d="M276.62,465.22c3.21,5.14,7.1,9.86,9.85,15.73-4.09.99-7.43-1.07-10.82-1.86-11.22-2.62-22.61-3.45-34.03-4.41-12.2-1.03-24.35-.08-36.5.61-6.96.39-13.83,1.9-20.48,4-4.67,1.48-5.28,3.74-2.51,7.42,4.49,5.95,7.1,13.17,12.48,18.51" style="fill: none; stroke: rgb(0, 0, 0); stroke-linecap: round; stroke-linejoin: round; stroke-width: 2px;" class="svg-elem-24"></path>
  <path d="M273.62,12.22C259.16,3.41,243.42,0,226.63,1.25c-5.43.4-10.87,1.1-15.99,3.01-11.31,4.23-23.34,6.47-34.04,12.41-1.96,1.09-3.54,2.47-4.95,4.07-2.58,2.94-1.97,4.63,1.98,5.98" style="fill: none; stroke: rgb(0, 0, 0); stroke-linecap: round; stroke-linejoin: round; stroke-width: 2px;" class="svg-elem-25"></path>
  <path d="M6.12,460.22c2-6.35,1.09-13.05,2.41-19.52,1.3-6.34,2.84-12.67,3.9-19.01,2.53-15.18,10.54-27.47,19.26-39.42,6.97-9.55,17.02-15.48,27.49-20.42,4.15-1.96,8.63-3.47,12.88-5.27,9.53-4.03,18.59-2.34,27.54,1.19,16.94,6.67,32.31,16.07,46.58,27.37,2.6,2.06,5.23,5.24,9.54,3.71-1.57-9.54-7.21-16.9-12.11-24.63" style="fill: none; stroke: rgb(0, 0, 0); stroke-linecap: round; stroke-linejoin: round; stroke-width: 2px;" class="svg-elem-26"></path>
  <path d="M257.62,429.22c11.99,16.34,22.34,33.71,32,51.5,6.38,11.77,12.57,23.62,16.49,36.5.94,3.1,1.63,6.31.49,9.49-2.53,7.06-.16,13.14,3.53,19.01" style="fill: none; stroke: rgb(0, 0, 0); stroke-linecap: round; stroke-linejoin: round; stroke-width: 2px;" class="svg-elem-27"></path>
  <path d="M13.12,502.72c4.97,6,9,12.78,15.47,17.54,9.98,7.35,21.3,11.54,33.02,15.01,2.99.88,6.27,1.36,8.78,3.88-9.97,2.61-21.06.88-33.77-5.93" style="fill: none; stroke: rgb(0, 0, 0); stroke-linecap: round; stroke-linejoin: round; stroke-width: 2px;" class="svg-elem-28"></path>
  <path d="M102.12,690.72c-4.88-4.23-7.9-10.03-10.22-15.61-3.47-8.33-9.53-14.61-14.35-21.84-12.1-18.15-26.36-34.74-38.82-52.62-4.76-6.83-7.06-15.11-11.09-22.44-4.93-8.97-9.33-18.26-15.61-27.68-1.24,4.92.9,8.02,2.14,11.17,4.77,12.03,11.56,22.95,18.95,33.52.63.9,1.61,1.41,2.5,2" style="fill: none; stroke: rgb(0, 0, 0); stroke-linecap: round; stroke-linejoin: round; stroke-width: 2px;" class="svg-elem-29"></path>
  <path d="M325.62,609.22c3.27-5.91,3.98-12.47,4.41-19.01.18-2.74,1.22-5.74,2.35-7.31,6.9-9.64,4.74-18.18-1.72-26.7-.1-.13-.04-.63-.53-.98-.19-.13-.34-.33-.62-.61-1.55,1.78-2.98,1.7-4.92.17-7.25-5.72-15.5-6.13-23.94-3.5-8.99,2.8-14.69,8.96-15.4,18.46-.68,9.02,3.41,15.94,11.37,20.51,6.88,3.95,13.85,4.01,21.01.98" style="fill: none; stroke: rgb(0, 0, 0); stroke-linecap: round; stroke-linejoin: round; stroke-width: 2px;" class="svg-elem-30"></path>
  <path d="M173.62,27.72c-4.44,1.67-9.39,1.31-13.57,4.41-8.8,6.52-13.22,15.8-16.28,25.64-3.5,11.22-5.72,22.78-12.03,33.03-2.3,3.74-1.47,8.68-1.35,12.92.09,3.37-.78,6.05-1.72,9.02-1.64,5.18-2.48,10.54-2.54,15.98-.04,3.66-1.31,6.47-4.5,8.53-13.91,8.97-17.33,22.71-16.39,37.97.43,6.96,2.74,13.65,6.87,19.51" style="fill: none; stroke: rgb(0, 0, 0); stroke-linecap: round; stroke-linejoin: round; stroke-width: 2px;" class="svg-elem-31"></path>
  <path d="M289.62,486.22c4.18,7.47,6.64,15.68,9.94,23.53,1.68,3.99.69,6.49-3.46,7.36-13.91,2.93-26.05,10.51-39.5,14.53-3.2.96-6.75,1.52-9.96-.45-.47-.29-.67-.55-1.02-.48-9.08,1.88-17.65-1.79-26.4-2.65-1.13,1.21-.36,2.51-.6,3.66" style="fill: none; stroke: rgb(0, 0, 0); stroke-linecap: round; stroke-linejoin: round; stroke-width: 2px;" class="svg-elem-32"></path>
  <path d="M494.12,1024.22c1.55,1.35,1.23,3.27,1.49,5,.76,4.93,1.67,9.86,3.55,14.48,3.23,7.92,3.32,16.39,3.03,24.5-.15,4.22-1.96,9.52-6.01,13.09-3.56,3.13-7.72,4.23-12.06,4.35-11.21.3-21.25-2.85-29.56-10.85-2.01-1.93-2.9-4.22-4.03-6.77,1.18-1.12,1.76-3.12,4.09-2.8" style="fill: none; stroke: rgb(0, 0, 0); stroke-linecap: round; stroke-linejoin: round; stroke-width: 2px;" class="svg-elem-33"></path>
  <path d="M305.62,525.72c-4.93,1.38-10.01-.11-15.01.94-7.98,1.67-15.43,4.48-22.52,8.51-5.44,3.09-10.64,6.79-16.5,8.96-8.16,3.02-15.93-.65-23.4-3.1-7.25-2.38-11.26-9.31-14.88-15.42-6.57-11.1-14.77-20.79-23.21-30.37-.63-.72-1.16-1.84-2.48-1.52" style="fill: none; stroke: rgb(0, 0, 0); stroke-linecap: round; stroke-linejoin: round; stroke-width: 2px;" class="svg-elem-34"></path>
  <path d="M47.12,1043.22c-2.31,9.01-6.16,17.53-7.18,26.98-.8,7.5-1.42,15.02-1.71,22.52-.41,10.49-.97,20.99-.61,31.5" style="fill: none; stroke: rgb(0, 0, 0); stroke-linecap: round; stroke-linejoin: round; stroke-width: 2px;" class="svg-elem-35"></path>
  <path d="M301.62,256.22c-.58-1.3.77-1.96,1.02-3,.75-3.13-.3-4.36-3.52-4-5.08.57-9.93,2.27-14.97,3.19-10.85,1.97-21.66,2.15-32.53,1.25-5.83-.48-11.69-.74-17.52-1.27-3.03-.27-5.85-1.7-8.99-1.21-2.28.35-4.85-.14-5.49,3.05" style="fill: none; stroke: rgb(0, 0, 0); stroke-linecap: round; stroke-linejoin: round; stroke-width: 2px;" class="svg-elem-36"></path>
  <path d="M244.12,589.72c-7.77-4.26-15.6-4.1-24.04-1.63-12.69,3.72-25.93,4.96-38.97,7.09-9.18,1.5-18.24,3.37-26.99,6.55" style="fill: none; stroke: rgb(0, 0, 0); stroke-linecap: round; stroke-linejoin: round; stroke-width: 2px;" class="svg-elem-37"></path>
  <path d="M108.62,375.22c14.14,9.53,28.82,18.55,37.44,34.03,6.24,11.21,12.04,22.61,14.75,35.43.98,4.61,3.74,8.92,5.49,13.47,1.03,2.67.75,3.04-1.69,3.07" style="fill: none; stroke: rgb(0, 0, 0); stroke-linecap: round; stroke-linejoin: round; stroke-width: 2px;" class="svg-elem-38"></path>
  <path d="M326.62,68.22c11.68,19.54,15.11,40.62,12.09,63.01-.52,3.88-.29,7.85-2.09,11.49" style="fill: none; stroke: rgb(0, 0, 0); stroke-linecap: round; stroke-linejoin: round; stroke-width: 2px;" class="svg-elem-39"></path>
  <path d="M402.12,616.22c.8-7.43,3.28-14.54,4.04-22,1.01-9.85.13-19.68-.14-29.5-.15-5.48-1.97-6.79-7.4-6.98-2.51-.09-4.14-.63-6.24-2.79-3.72-3.84-9.57-4.69-14.78-5.63-15.69-2.82-31.43-5.47-47.48-5.13-3.37.07-6.15.72-7,4.53" style="fill: none; stroke: rgb(0, 0, 0); stroke-linecap: round; stroke-linejoin: round; stroke-width: 2px;" class="svg-elem-40"></path>
  <path d="M343.12,944.22c1.2,7.12.6,14.34,1.32,21.52,1.41,14.04,3.41,28,5.03,42,.35,3.05,1.54,6.32.15,9.48" style="fill: none; stroke: rgb(0, 0, 0); stroke-linecap: round; stroke-linejoin: round; stroke-width: 2px;" class="svg-elem-41"></path>
  <path d="M324.62,80.22c4.59,10.59,7.59,21.68,9.38,33.02.94,5.91,1.76,11.94,1.6,17.98-.52,20.24.96,40.42,3.25,60.47.93,8.19,1.83,16.3,1.77,24.53" style="fill: none; stroke: rgb(0, 0, 0); stroke-linecap: round; stroke-linejoin: round; stroke-width: 2px;" class="svg-elem-42"></path>
  <path d="M256.12,229.72c-10.48,2.25-20.99,4.37-31.49,6.54-13.51,2.79-18.13,9.8-16.08,23.47.24,1.59.92,3.64-.93,4.98-1.79,1.31-3.39.3-5-.49" style="fill: none; stroke: rgb(0, 0, 0); stroke-linecap: round; stroke-linejoin: round; stroke-width: 2px;" class="svg-elem-43"></path>
  <path d="M100.62,388.22c-7.1-2.54-13.9-5.64-21.46-7.19-17.86-3.67-33.68.51-48.54,10.19" style="fill: none; stroke: rgb(0, 0, 0); stroke-linecap: round; stroke-linejoin: round; stroke-width: 2px;" class="svg-elem-44"></path>
  <path d="M65.62,721.72c7.36-9.58,9.76-20.95,11.44-32.51.66-4.5,1.67-9.16-1.18-13.88-2.68,3.86-3.36,8.27-4.15,12.41-2.14,11.17-4.86,22.23-6.9,33.43-.64,3.5-2.33,7.85-5.3,10.46-6.48,5.7-8.18,13.33-8.78,21.1-.79,10.21-.17,20.45,2.32,30.5.74,2.98.95,6.08,2.03,8.99" style="fill: none; stroke: rgb(0, 0, 0); stroke-linecap: round; stroke-linejoin: round; stroke-width: 2px;" class="svg-elem-45"></path>
  <path d="M231.62,566.22c-9.57-9.06-19.77-17.22-32-22.5-11.21-4.83-22.77-7.27-35.28-5.32,2.46,2.82,4.23,4.37,8.8,5.76,15.44,4.69,29.81,11.59,43.48,20.06" style="fill: none; stroke: rgb(0, 0, 0); stroke-linecap: round; stroke-linejoin: round; stroke-width: 2px;" class="svg-elem-46"></path>
  <path d="M443.12,371.72c-3.17,3.4-1.56,7.74-1.81,11.51-.82,12.74.6,25.39,2.73,38,2.09,12.4,3.64,24.89,4.07,37.49.06,1.84.2,3.71-.49,5.5" style="fill: none; stroke: rgb(0, 0, 0); stroke-linecap: round; stroke-linejoin: round; stroke-width: 2px;" class="svg-elem-47"></path>
  <path d="M578.62,510.22c-1.52-14.11-11.52-20.78-23.02-25.95-5.76-2.59-11.82-2.5-17.99-1.1-9.78,2.23-19.67,3.97-29.49,6.05-19.86,4.21-32.9,16.22-39.99,35.01-.79,2.09-1.58,4.23-.31,6.91,4.53-3.85,7.17-9.09,10.66-13.53,6.53-8.28,14.68-14.13,23.54-19.55,5.94-3.64,12.69-5.83,18.1-10.33" style="fill: none; stroke: rgb(0, 0, 0); stroke-linecap: round; stroke-linejoin: round; stroke-width: 2px;" class="svg-elem-48"></path>
  <path d="M151.12,199.72c-1.07-4.63-.14-9.34-.52-14-1.07-13.41-3.33-26.44-10.88-38.07-1.48-2.29-3.26-4.16-5.17-5.85-2.29-2.02-5.14-2.35-7.93-.58" style="fill: none; stroke: rgb(0, 0, 0); stroke-linecap: round; stroke-linejoin: round; stroke-width: 2px;" class="svg-elem-49"></path>
  <path d="M247.12,603.72c-4.63,13.23-12.37,24.34-22.43,34.07-7.25,7.01-13.4,15.06-19.1,23.41-1.21,1.77-2.17,4.1-4.97,4.02" style="fill: none; stroke: rgb(0, 0, 0); stroke-linecap: round; stroke-linejoin: round; stroke-width: 2px;" class="svg-elem-50"></path>
  <path d="M247.62,14.22c10.66,8.46,14.34,20.75,17.94,33.02,1.52,5.2,2.68,10.55,2.98,15.99.13,2.3,1.76,2.9,2.88,4.09,2.9-1.35,5.97-1.88,8.2-4.09" style="fill: none; stroke: rgb(0, 0, 0); stroke-linecap: round; stroke-linejoin: round; stroke-width: 2px;" class="svg-elem-51"></path>
  <path d="M230.62,374.22c7.07,4.9,14.86,7.55,23.5,8.04,14.77.84,28.01,5.33,37.94,17.01.34.41.63,1.24,1.08,1.4,1.7.58,2.24,2.59,4.45,3.2,1.44-5.83,1.47-11.87,2.88-17.69,1.33-5.49,5.12-10.12,5.16-15.96" style="fill: none; stroke: rgb(0, 0, 0); stroke-linecap: round; stroke-linejoin: round; stroke-width: 2px;" class="svg-elem-52"></path>
  <path d="M282.62,162.22c-2.73,10.16-.72,20.03,1.38,30.03,1.5,7.17,3.62,14.18,4.91,21.42.68,3.8-.09,7.05-.29,10.55" style="fill: none; stroke: rgb(0, 0, 0); stroke-linecap: round; stroke-linejoin: round; stroke-width: 2px;" class="svg-elem-53"></path>
  <path d="M457.62,549.72c-3.94,2.26-7.79.02-11.47-.66-8.61-1.58-16.58-1.73-23.56,4.63-3.15,2.87-6.38,1.33-9.47-.47-4-2.32-8.13-2.9-12.5-1.01-4.97,2.15-6.53,4.53-4.93,9.49,6.03,18.71,4.74,37.93,3.65,57-.36,6.28-3.58,12.42-4.36,19-.63,5.38-2.07,10.42,3.6,14.08,1.07.69-.44,1.91-.46,2.93" style="fill: none; stroke: rgb(0, 0, 0); stroke-linecap: round; stroke-linejoin: round; stroke-width: 2px;" class="svg-elem-54"></path>
  <path d="M210.62,58.72c-7.8-1.71-15.45-3.95-22.99-6.53-12.02-4.11-23.2-2.17-34.05,3.96-2.82,1.59-3.49,5.39-6.96,6.07" style="fill: none; stroke: rgb(0, 0, 0); stroke-linecap: round; stroke-linejoin: round; stroke-width: 2px;" class="svg-elem-55"></path>
  <path d="M499.62,1048.22c-3.18.38-1.87,2.88-1.94,4.5-.22,4.87-.59,9.75-1.63,14.48-1.44,6.54-7.26,10.01-13.93,9.04-8.05-1.17-15.57-3.73-22.5-8.02" style="fill: none; stroke: rgb(0, 0, 0); stroke-linecap: round; stroke-linejoin: round; stroke-width: 2px;" class="svg-elem-56"></path>
  <path d="M490.62,410.22c-.75-1.96-2.87-2.85-3.55-4.98-2.58-8.18-9-12.9-15.96-17-5.01-2.95-8.68-6.95-10.48-12.52-.7-2.17-1.67-4.17-3.02-5.99-2.95-3.98-7.09-6.28-13-3" style="fill: none; stroke: rgb(0, 0, 0); stroke-linecap: round; stroke-linejoin: round; stroke-width: 2px;" class="svg-elem-57"></path>
  <path d="M234.62,265.22c9.18,7.45,19.4,11.51,31.5,11.13,9.03-.29,17.98.04,25.5-6.13" style="fill: none; stroke: rgb(0, 0, 0); stroke-linecap: round; stroke-linejoin: round; stroke-width: 2px;" class="svg-elem-58"></path>
  <path d="M427.62,736.22c-6.7,6.01-15.22,8.11-23.54,9.8-10.13,2.06-20.55,2.73-30.96,2.23-.93-.05-1.47-.42-2-1.06,1.05-4.4,5.32-6.4,7.5-9.97" style="fill: none; stroke: rgb(0, 0, 0); stroke-linecap: round; stroke-linejoin: round; stroke-width: 2px;" class="svg-elem-59"></path>
  <path d="M301.62,316.22c.4,3.36,2.3,6.2,3.16,9.46,2.34,8.86-1.01,16.59-3.67,24.54-1.76,5.25-3.56,10.61.61,15.41,1.36,1.56.08,3.36,1.89,5.13,7.06-5.51,11.81-12.79,16.01-20.54" style="fill: none; stroke: rgb(0, 0, 0); stroke-linecap: round; stroke-linejoin: round; stroke-width: 2px;" class="svg-elem-60"></path>
  <path d="M290.62,260.22c-11.88,6.64-24.5,6.88-37.51,4.55-6.41-1.15-12.4-3.47-18.49-5.55" style="fill: none; stroke: rgb(0, 0, 0); stroke-linecap: round; stroke-linejoin: round; stroke-width: 2px;" class="svg-elem-61"></path>
  <path d="M122.62,146.22c-3.78,10.83-2.39,21.85.22,32.45,2.26,9.18,4.47,18.39,6.58,27.6,1.13,4.91.62,10.33.06,15.44-.4,3.66-3.33,4.74-6.86,3.52" style="fill: none; stroke: rgb(0, 0, 0); stroke-linecap: round; stroke-linejoin: round; stroke-width: 2px;" class="svg-elem-62"></path>
  <path d="M503.12,1070.22c3.48,15.98,3,32.33,4.47,48.5.17,1.88.61,3.68,1.03,5.5" style="fill: none; stroke: rgb(0, 0, 0); stroke-linecap: round; stroke-linejoin: round; stroke-width: 2px;" class="svg-elem-63"></path>
  <path d="M496.62,416.22c1.72,2.8,4.45,4.94,5.07,8.49.33,1.88,1.89,2.62,3.91,3.11,5.19,1.27,7.1,2.17,6.53,7.9-.24,2.43.35,4.69,2.51,5.97,7.46,4.42,10.89,11.13,11.43,19.54.05.77.6,1.28.55,2" style="fill: none; stroke: rgb(0, 0, 0); stroke-linecap: round; stroke-linejoin: round; stroke-width: 2px;" class="svg-elem-64"></path>
  <path d="M52.12,653.72c-3.35,4.36-6.29,8.97-8.48,14.01-4.38,10.05-2.69,20.05.49,29.99,2.25,7.05,5.81,13.48,10.08,19.44,2.15,3,4.93,5.76,8.91,6.56" style="fill: none; stroke: rgb(0, 0, 0); stroke-linecap: round; stroke-linejoin: round; stroke-width: 2px;" class="svg-elem-65"></path>
  <path d="M221.62,299.22c-4.92,6.8-6.73,14.02-3,22,3.43,7.35,3.16,15.21,2.9,23-.09,2.82,1.22,5.28,1.1,8" style="fill: none; stroke: rgb(0, 0, 0); stroke-linecap: round; stroke-linejoin: round; stroke-width: 2px;" class="svg-elem-66"></path>
  <path d="M340.62,219.22c-1.47,2.24-.65,4.6-.57,7,.25,7.84-.57,15.67-.8,23.5-.08,2.94.65,6.16,1.54,8.94,2.1,6.53-.84,12.13-1.51,18.37-1.64-.89-1.78-1.8-1.65-2.82" style="fill: none; stroke: rgb(0, 0, 0); stroke-linecap: round; stroke-linejoin: round; stroke-width: 2px;" class="svg-elem-67"></path>
  <path d="M133.62,151.22c6.11,4.51,8.43,11.39,10.89,18.04,1.42,3.83-.36,5.74-4.39,5.96-4.17.23-6.08,2.31-6.54,6.5-.71,6.39,3.43,10.29,7.04,14.5" style="fill: none; stroke: rgb(0, 0, 0); stroke-linecap: round; stroke-linejoin: round; stroke-width: 2px;" class="svg-elem-68"></path>
  <path d="M7.12,472.22c2.32.88,2.6,3.39,3.93,5.06,6.61,8.3,15.95,10.03,25.58,10.87,5.81.51,11.64,1.1,17.49,1.1,1.03,0,2.23.04,2.5,1.48" style="fill: none; stroke: rgb(0, 0, 0); stroke-linecap: round; stroke-linejoin: round; stroke-width: 2px;" class="svg-elem-69"></path>
  <path d="M102.12,436.72c6.31,1.77,12.75,3.02,19.01,4.98,11.5,3.61,22.03,9.03,31.49,16.52" style="fill: none; stroke: rgb(0, 0, 0); stroke-linecap: round; stroke-linejoin: round; stroke-width: 2px;" class="svg-elem-70"></path>
  <path d="M125.62,250.22c-3.04,4.38-7.92,4.6-12.54,5.43,4.14,7.89,7.08,8.66,21.15,5.55,1.23,2.69-.32,5.35-.15,8.03.29,4.51.83,5.07,5.54,4.49,3.89-.48,7.19,2.16,11,2.01" style="fill: none; stroke: rgb(0, 0, 0); stroke-linecap: round; stroke-linejoin: round; stroke-width: 2px;" class="svg-elem-71"></path>
  <path d="M162.62,245.22c1.25-2.63,2.88-4.99,5.1-7.76,2.04,3.88.08,6.96-1.26,9.16-4.32,7.06-7.02,14.48-9.27,22.48-1.47,5.23-1.68,10-1.64,15.12.01,1.53,1.56,2.46,1.08,4" style="fill: none; stroke: rgb(0, 0, 0); stroke-linecap: round; stroke-linejoin: round; stroke-width: 2px;" class="svg-elem-72"></path>
  <path d="M152.12,234.22c1.18-6.14,5.21-11.1,7.03-16.99.7-2.26,1.14-4.31-1.01-5.99-1.95-.54-2.09,2.5-4.57,1.82.19-5.63,6.22-10.66,2.59-17.06-5.18,2.6-7.18,6.64-6.56,12.22.61,5.49-1.2,10.97-.04,16.51.45,2.15-2.08,4.53-1.71,5.93,2.62,10.02-2.21,20.14.71,30.08.23.77.33,1.86.65,2.43,5.91,10.46,1.43,20.04-3.3,28.93-3.7,6.95-7.35,13.46-7.38,21.62-.02,5.21-4.12,8.38-7.98,10.88-3.84,2.49-7.41,5.25-10.91,8.14-1.77,1.46-3.27,2.01-5.55.56-6.25-3.98-10.02-3.17-12.26,3.5-1.51,4.5-5.06,5.55-8.24,7.37-5.15,2.95-10.84,5.01-14.96,9.56" style="fill: none; stroke: rgb(0, 0, 0); stroke-linecap: round; stroke-linejoin: round; stroke-width: 2px;" class="svg-elem-73"></path>
  <path d="M58.62,490.72c-4.34,1.76-8.9,2-13.5,2-8.74,0-17.46.05-26.02,2.4-2.18.6-5.24.27-5.8,2.63-.71,2.99-1.32,6.13-.28,9.49,2.49,8.07,8.23,13.62,14.26,18.79,1.63,1.4,3.01,3.54,5.34,4.18" style="fill: none; stroke: rgb(0, 0, 0); stroke-linecap: round; stroke-linejoin: round; stroke-width: 2px;" class="svg-elem-74"></path>
  <path d="M183.62,28.72c2.19,2.74,5.77,2.36,8.57,3.27,9.88,3.21,17.86,8.96,24.9,16.26,4.42,4.58,3.5,8.01-2.47,10.47" style="fill: none; stroke: rgb(0, 0, 0); stroke-linecap: round; stroke-linejoin: round; stroke-width: 2px;" class="svg-elem-75"></path>
  <path d="M252.12,594.72c-4-.29-7.82.67-11.49,2.04-9.54,3.56-19.54,4.95-29.52,6.43-1.53.23-3.21.35-4.59-1.06.77-4.19,4.15-5.53,7.59-6.92,8.2-3.33,16.8-4.05,25.51-3.94,2.66.04,4.94-.17,6-3.04" style="fill: none; stroke: rgb(0, 0, 0); stroke-linecap: round; stroke-linejoin: round; stroke-width: 2px;" class="svg-elem-76"></path>
  <path d="M450.62,422.22c-2.42,1.52-3.8,1.49-4.07-1.99-.39-5.14,1.7-9.54,3.61-13.99,2.43-5.64,4.3-11.41,4.92-17.52.19-1.86.35-3.84-.9-5.41-1.25-.63-1.55,1.05-2.56.92" style="fill: none; stroke: rgb(0, 0, 0); stroke-linecap: round; stroke-linejoin: round; stroke-width: 2px;" class="svg-elem-77"></path>
  <path d="M12.12,416.72c-4.75,7.48-6.07,16.05-7.4,24.52-.99,6.27-1.2,12.69.4,18.98" style="fill: none; stroke: rgb(0, 0, 0); stroke-linecap: round; stroke-linejoin: round; stroke-width: 2px;" class="svg-elem-78"></path>
  <path d="M287.62,555.72c-3-2.43-6.22-.81-8.96.11-11.63,3.89-22.82,8.93-34.04,13.89" style="fill: none; stroke: rgb(0, 0, 0); stroke-linecap: round; stroke-linejoin: round; stroke-width: 2px;" class="svg-elem-79"></path>
  <path d="M222.62,623.22c-9.19,10.91-16.87,22.64-21.17,36.45-.6,1.94-.48,3.72-.83,5.55" style="fill: none; stroke: rgb(0, 0, 0); stroke-linecap: round; stroke-linejoin: round; stroke-width: 2px;" class="svg-elem-80"></path>
  <path d="M269.62,328.22c.73,7.11-1.09,13.4-4.87,19.58-3.96,6.47-5.7,13.75-3.13,21.42" style="fill: none; stroke: rgb(0, 0, 0); stroke-linecap: round; stroke-linejoin: round; stroke-width: 2px;" class="svg-elem-81"></path>
  <path d="M60.12,1083.22c-2.59,7.46-1.89,15.35-2.9,23.01-.78,5.95-1.27,11.97-1.6,17.99" style="fill: none; stroke: rgb(0, 0, 0); stroke-linecap: round; stroke-linejoin: round; stroke-width: 2px;" class="svg-elem-82"></path>
  <path d="M316.62,48.22c3.96,7.12,2.15,13.62-3.01,14.43-3.94.62-8.09,2.38-11.92.44-2.22-1.13-4.43-.63-6.6-1.25-2-.56-4.3,1.12-6.78-.2,4.42-10.65,4.11-21.03-2.19-30.92" style="fill: none; stroke: rgb(0, 0, 0); stroke-linecap: round; stroke-linejoin: round; stroke-width: 2px;" class="svg-elem-83"></path>
  <path d="M244.62,144.22c-7.99-.49-15.97-1.1-24-1.12-5.83-.02-11.08,1.15-16,4.12" style="fill: none; stroke: rgb(0, 0, 0); stroke-linecap: round; stroke-linejoin: round; stroke-width: 2px;" class="svg-elem-84"></path>
  <path d="M238.62,32.22c1.11,5.9,4.62,11.03,5.5,17,.51,3.5,1.66,7-.13,11.13-9.7-1.87-19.53,2.27-29.36-.63" style="fill: none; stroke: rgb(0, 0, 0); stroke-linecap: round; stroke-linejoin: round; stroke-width: 2px;" class="svg-elem-85"></path>
  <path d="M164.62,113.22c-4.41,13.1-16.92,22.76-32,21.01-2.53-.29-4.32-1.78-6-3.51" style="fill: none; stroke: rgb(0, 0, 0); stroke-linecap: round; stroke-linejoin: round; stroke-width: 2px;" class="svg-elem-86"></path>
  <path d="M292.12,322.72c4.33,11.98-1.12,21.9-7.11,31.43-3.01,4.78-3.6,8.88-.45,13.62.8,1.2,1.61,2.65,1.92,3.99.26,1.11,1.47,3.82-1.85,3.47" style="fill: none; stroke: rgb(0, 0, 0); stroke-linecap: round; stroke-linejoin: round; stroke-width: 2px;" class="svg-elem-87"></path>
  <path d="M328.62,294.22c6.55,12.41,4.53,24.94.5,37.5" style="fill: none; stroke: rgb(0, 0, 0); stroke-linecap: round; stroke-linejoin: round; stroke-width: 2px;" class="svg-elem-88"></path>
  <path d="M466.62,465.22c-6.02,10.13-12.15,20.18-14.65,31.97-.3,1.4.98,3.99-1.85,4.53" style="fill: none; stroke: rgb(0, 0, 0); stroke-linecap: round; stroke-linejoin: round; stroke-width: 2px;" class="svg-elem-89"></path>
  <path d="M173.62,261.22c-5.21,11.87-4.62,24.13-2.5,36.5" style="fill: none; stroke: rgb(0, 0, 0); stroke-linecap: round; stroke-linejoin: round; stroke-width: 2px;" class="svg-elem-90"></path>
  <path d="M453.12,694.72c-4.51,10.54-9.15,20.98-16.33,30.14-1.04,1.33-2.91,2.38-3.17,4.36" style="fill: none; stroke: rgb(0, 0, 0); stroke-linecap: round; stroke-linejoin: round; stroke-width: 2px;" class="svg-elem-91"></path>
  <path d="M551.12,526.72c3.47,2.92,8.12,2.61,12.04,4.42,5.82,2.69,12.16,4.28,17.44,8.11,1.45,1.05,2.95.96,4.52.96-4.78-9.25-22.45-16.83-34.48-13.92-2.39.58-4.75.6-7.01.33-5.34-.63-10.39.62-15.51,1.59" style="fill: none; stroke: rgb(0, 0, 0); stroke-linecap: round; stroke-linejoin: round; stroke-width: 2px;" class="svg-elem-92"></path>
  <path d="M245.62,424.22c8.56,11.41,18,22.16,26,34" style="fill: none; stroke: rgb(0, 0, 0); stroke-linecap: round; stroke-linejoin: round; stroke-width: 2px;" class="svg-elem-93"></path>
  <path d="M361.62,642.22c-1.79-.87-2.92-2.42-4.46-4.24,2.08-1.27,4.33-1.19,5.93-.65,10.56,3.57,21.6,6.1,30.54,13.38.54.44.51.95.49,1.51" style="fill: none; stroke: rgb(0, 0, 0); stroke-linecap: round; stroke-linejoin: round; stroke-width: 2px;" class="svg-elem-94"></path>
  <path d="M216.62,40.22c-8.18-6.25-17.63-9.79-27.53-11.85-4.67-.97-9.71.27-14.47-1.15" style="fill: none; stroke: rgb(0, 0, 0); stroke-linecap: round; stroke-linejoin: round; stroke-width: 2px;" class="svg-elem-95"></path>
  <path d="M325.62,144.22c-5.79-4.15-12.09-1.65-17.97-.78-4.78.71-9.83,1.82-14.03,4.78" style="fill: none; stroke: rgb(0, 0, 0); stroke-linecap: round; stroke-linejoin: round; stroke-width: 2px;" class="svg-elem-96"></path>
  <path d="M161.62,226.22c2.99,1.38.92,3.38.45,4.99-1.93,6.63-6.39,12.2-8.04,18.99-.36,1.47-.65,2.69.15,4.25,2.41-1.2,4.01-3.12,5.44-5.23" style="fill: none; stroke: rgb(0, 0, 0); stroke-linecap: round; stroke-linejoin: round; stroke-width: 2px;" class="svg-elem-97"></path>
  <path d="M250.62,528.22c.83-3.63.98-7.13-2-10-2.02-1.94-4.39-2.94-6.97-1.46-3.03,1.75-3.82,4.98-2.85,7.9.68,2.06,1.59,4.74,4.33,5.56" style="fill: none; stroke: rgb(0, 0, 0); stroke-linecap: round; stroke-linejoin: round; stroke-width: 2px;" class="svg-elem-98"></path>
  <path d="M260.62,599.22c5.34.77,7.43,5.18,9.97,9.02,1.27,1.92,1.85,4.37,4.45,5.05,1.72.21,2.32-1.23,3.04-2.11,3.49-4.32,7.42-5.79,13.08-4.09,8.04,2.41,15.65,5,21.05,12.06,1.9,2.48,4.07,6.06,8.41,3.57,7.91,3.46,17.14,2.85,24.5,8" style="fill: none; stroke: rgb(0, 0, 0); stroke-linecap: round; stroke-linejoin: round; stroke-width: 2px;" class="svg-elem-99"></path>
  <path d="M150.62,60.22c7.97-.1,15.91.11,23.5,3,2.19.83,4.54,1.4,6,3.5" style="fill: none; stroke: rgb(0, 0, 0); stroke-linecap: round; stroke-linejoin: round; stroke-width: 2px;" class="svg-elem-100"></path>
  <path d="M126.62,434.22c11.21,3.98,21.25,9.92,30,18" style="fill: none; stroke: rgb(0, 0, 0); stroke-linecap: round; stroke-linejoin: round; stroke-width: 2px;" class="svg-elem-101"></path>
  <path d="M322.62,273.22c5.59,3.28,7.82,8.96,9.91,14.53,1.68,4.48,1.43,9.55,3.11,14.71,3.72-5.83,3.54-15.2-.02-27.25" style="fill: none; stroke: rgb(0, 0, 0); stroke-linecap: round; stroke-linejoin: round; stroke-width: 2px;" class="svg-elem-102"></path>
  <path d="M321.62,302.22c.98,6.13,1.87,12.24,2.13,18.49.29,6.9,3.94,11.9,10.87,14.01" style="fill: none; stroke: rgb(0, 0, 0); stroke-linecap: round; stroke-linejoin: round; stroke-width: 2px;" class="svg-elem-103"></path>
  <path d="M169.62,77.72c-10.68,2.33-22.12,3.02-29,13.5" style="fill: none; stroke: rgb(0, 0, 0); stroke-linecap: round; stroke-linejoin: round; stroke-width: 2px;" class="svg-elem-104"></path>
  <path d="M284.62,25.22c.73,9.65,4.18,19.15,1.13,29.04-.71,2.31-2.16,3.94-3.13,5.96" style="fill: none; stroke: rgb(0, 0, 0); stroke-linecap: round; stroke-linejoin: round; stroke-width: 2px;" class="svg-elem-105"></path>
  <path d="M313.62,292.22c-1.19-1.36-3.07-1.25-4.56-1.85-3.84-1.54-7.3.31-7.3,4.35,0,12.72-7.99,21.99-13.14,32.5" style="fill: none; stroke: rgb(0, 0, 0); stroke-linecap: round; stroke-linejoin: round; stroke-width: 2px;" class="svg-elem-106"></path>
  <path d="M328.12,600.22c-8.21,2.04-16.56,2.97-25,2.95-1.53,0-2.62.39-3.5,1.55" style="fill: none; stroke: rgb(0, 0, 0); stroke-linecap: round; stroke-linejoin: round; stroke-width: 2px;" class="svg-elem-107"></path>
  <path d="M292.12,400.22c-2.23.61-4.38-.55-6.46-.8-4.39-.52-6.4,1.73-6.82,4.83-.42,3.06.37,6.65,4.28,7.99,1,.34,1.86,1.09,3.01.98,6.65-4.58,6.65-6.35,0-13" style="fill: none; stroke: rgb(0, 0, 0); stroke-linecap: round; stroke-linejoin: round; stroke-width: 2px;" class="svg-elem-108"></path>
  <path d="M284.62,289.22c1.35,9.39.45,19.18,5,28" style="fill: none; stroke: rgb(0, 0, 0); stroke-linecap: round; stroke-linejoin: round; stroke-width: 2px;" class="svg-elem-109"></path>
  <path d="M148.62,106.22c-8.74,6.99-15.13,15.73-19.5,26" style="fill: none; stroke: rgb(0, 0, 0); stroke-linecap: round; stroke-linejoin: round; stroke-width: 2px;" class="svg-elem-110"></path>
  <path d="M333.12,373.22c3.14,4.6,7.36,7.32,12.99,8.06,4.5.59,8.83,2.56,14.17,1.77-7.33-6.68-12.52-13.85-13.67-23.33-.31-2.59-3.4-4.45-1.99-7.5" style="fill: none; stroke: rgb(0, 0, 0); stroke-linecap: round; stroke-linejoin: round; stroke-width: 2px;" class="svg-elem-111"></path>
  <path d="M187.62,291.22c-4.62,7.84-5.17,16.01-2.04,24.51.27.73.04,1.65.04,2.49" style="fill: none; stroke: rgb(0, 0, 0); stroke-linecap: round; stroke-linejoin: round; stroke-width: 2px;" class="svg-elem-112"></path>
  <path d="M329.12,333.22c-3.18,5.23-3.49,11.39-5.48,17.01-1.25,3.54-2.21,7.2-6.02,8.99" style="fill: none; stroke: rgb(0, 0, 0); stroke-linecap: round; stroke-linejoin: round; stroke-width: 2px;" class="svg-elem-113"></path>
  <path d="M210.62,13.22c3.9,2.93,9,3.35,12.98,6.04,4.62,3.12,9.88,5.57,12.52,10.96" style="fill: none; stroke: rgb(0, 0, 0); stroke-linecap: round; stroke-linejoin: round; stroke-width: 2px;" class="svg-elem-114"></path>
  <path d="M128.62,407.22c8.47,7.59,16.72,15.39,23,25" style="fill: none; stroke: rgb(0, 0, 0); stroke-linecap: round; stroke-linejoin: round; stroke-width: 2px;" class="svg-elem-115"></path>
  <path d="M228.62,546.22c6.46,6.8,10.75,15.12,15.25,23.14,2.18,3.88,1.44,9.27,2.68,13.88.39,1.46.27,2.49,1.97,3.63,4.37,2.91,5.25,7.4,3.68,12.42,4.38,3.77,3.98,6.73-1.58,10.93-2.27-2.69-1.71-6.21,1.5-9.5" style="fill: none; stroke: rgb(0, 0, 0); stroke-linecap: round; stroke-linejoin: round; stroke-width: 2px;" class="svg-elem-116"></path>
  <path d="M461.62,413.22c-7.1,6.54-11.34,14.68-13.53,23.99-.13.55-.64.67-.97.51" style="fill: none; stroke: rgb(0, 0, 0); stroke-linecap: round; stroke-linejoin: round; stroke-width: 2px;" class="svg-elem-117"></path>
  <path d="M328.12,556.72c3.25,6.28,3.52,13.16,4,20,.12,1.67-.3,3.4.5,5" style="fill: none; stroke: rgb(0, 0, 0); stroke-linecap: round; stroke-linejoin: round; stroke-width: 2px;" class="svg-elem-118"></path>
  <path d="M339.12,223.72c-2.73,2.19-2.3,5.7-3.38,8.55-2.07,5.47-5.5,10.31-7.12,15.95" style="fill: none; stroke: rgb(0, 0, 0); stroke-linecap: round; stroke-linejoin: round; stroke-width: 2px;" class="svg-elem-119"></path>
  <path d="M131.12,209.72c1.75,5.83,3.01,11.82,6.48,17.01,2.97,4.45,4.92,5.36,9.52,3.99" style="fill: none; stroke: rgb(0, 0, 0); stroke-linecap: round; stroke-linejoin: round; stroke-width: 2px;" class="svg-elem-120"></path>
  <path d="M251.62,226.22c-1.4-2.37-1.38-2.31.49-3.01,4.13-1.56,6.88,1.44,9.97,3.09,1.39.74,2.46,2.19,3.52,3.44,5.09,6.02,11.35,6.84,18.04,2.52,2.99-1.93,6.46-2.86,9.97-1.98,6.98,1.75,14.34,1.9,21.01,4.95" style="fill: none; stroke: rgb(0, 0, 0); stroke-linecap: round; stroke-linejoin: round; stroke-width: 2px;" class="svg-elem-121"></path>
  <path d="M369.62,832.72c-2.19-1.9-.25-4.78-1.89-7.08-2.34-3.29-5.11-4.1-7.01-.86-1.1,1.87-2.52,4.08-2.03,6.42.53,2.52,1.09,5.52,3.95,6.42,2.54.8,4.36-1.12,5.97-2.91" style="fill: none; stroke: rgb(0, 0, 0); stroke-linecap: round; stroke-linejoin: round; stroke-width: 2px;" class="svg-elem-122"></path>
  <path d="M528.62,465.22c2.29,1.53,5.05,1.86,7.52,2.96,7.03,3.14,8.91,8.06,4.98,13.54" style="fill: none; stroke: rgb(0, 0, 0); stroke-linecap: round; stroke-linejoin: round; stroke-width: 2px;" class="svg-elem-123"></path>
  <path d="M404.12,666.72c4.38,4.95,4.12,11.05,3.85,16.99-.07,1.57.2,3.48-.85,5.01" style="fill: none; stroke: rgb(0, 0, 0); stroke-linecap: round; stroke-linejoin: round; stroke-width: 2px;" class="svg-elem-124"></path>
  <path d="M357.62,943.22c-1.02-2.75-.17-5.87-1.96-8.53-1.71-2.55-4.18-3.09-6.04-.97-2.44,2.78-1.89,10.18,1,13.5" style="fill: none; stroke: rgb(0, 0, 0); stroke-linecap: round; stroke-linejoin: round; stroke-width: 2px;" class="svg-elem-125"></path>
  <path d="M230.62,150.22c-5.5.61-10.95-1.12-16.53-.16-1.84.32-3.57,1.2-5.47,1.16" style="fill: none; stroke: rgb(0, 0, 0); stroke-linecap: round; stroke-linejoin: round; stroke-width: 2px;" class="svg-elem-126"></path>
  <path d="M249.62,32.22c4.28,7.52,7.06,15.6,9,24" style="fill: none; stroke: rgb(0, 0, 0); stroke-linecap: round; stroke-linejoin: round; stroke-width: 2px;" class="svg-elem-127"></path>
  <path d="M7.62,479.22c-.34,7.03,2.1,13.65,3.06,20.49.05.39.63,1.14,1.44,1.01" style="fill: none; stroke: rgb(0, 0, 0); stroke-linecap: round; stroke-linejoin: round; stroke-width: 2px;" class="svg-elem-128"></path>
  <path d="M197.62,319.22c-2.54,7.23.4,14.33,1.15,21.82-1.85-.79-2.72-1.59-3.15-2.82" style="fill: none; stroke: rgb(0, 0, 0); stroke-linecap: round; stroke-linejoin: round; stroke-width: 2px;" class="svg-elem-129"></path>
  <path d="M272.62,283.22c-3.5,0-7,0-10.5,0-1.25,3.44-1.91,7.16-4.5,10" style="fill: none; stroke: rgb(0, 0, 0); stroke-linecap: round; stroke-linejoin: round; stroke-width: 2px;" class="svg-elem-130"></path>
  <path d="M116.62,236.22c2.21,2.79,5.79,4.21,7.62,7.52-2.3,4.2-6.68,2.93-10.42,4.06,1.69,4.31,5.94,2.64,8.8,3.92" style="fill: none; stroke: rgb(0, 0, 0); stroke-linecap: round; stroke-linejoin: round; stroke-width: 2px;" class="svg-elem-131"></path>
  <path d="M272.12,358.72c-2.19,7.63,1.34,13.83,5.31,19.84-3.52,1.82-6.13.02-8.81-1.34" style="fill: none; stroke: rgb(0, 0, 0); stroke-linecap: round; stroke-linejoin: round; stroke-width: 2px;" class="svg-elem-132"></path>
  <path d="M292.62,24.22c7.44,4.83,13.1,11.54,19,18" style="fill: none; stroke: rgb(0, 0, 0); stroke-linecap: round; stroke-linejoin: round; stroke-width: 2px;" class="svg-elem-133"></path>
  <path d="M231.12,399.72c-.82,4.91,3.46,7.61,5.15,11.43,1.27,2.87,3.49,5.42,5.35,8.07" style="fill: none; stroke: rgb(0, 0, 0); stroke-linecap: round; stroke-linejoin: round; stroke-width: 2px;" class="svg-elem-134"></path>
  <path d="M112.12,177.72c3.21,4.11,3.52,9.72,7.38,13.62,1.43,1.44,3.44,2.69,4.12,4.88" style="fill: none; stroke: rgb(0, 0, 0); stroke-linecap: round; stroke-linejoin: round; stroke-width: 2px;" class="svg-elem-135"></path>
  <path d="M451.12,524.22c-1.27,7.72-.21,15.07,3.5,22" style="fill: none; stroke: rgb(0, 0, 0); stroke-linecap: round; stroke-linejoin: round; stroke-width: 2px;" class="svg-elem-136"></path>
  <path d="M325.62,150.22c-4.67-2.66-9.36-1.3-13.99.05-1.33.39-2.53,1.2-4.01.95" style="fill: none; stroke: rgb(0, 0, 0); stroke-linecap: round; stroke-linejoin: round; stroke-width: 2px;" class="svg-elem-137"></path>
  <path d="M192.62,159.22c-.69,3.71-4.59,7.69.53,10.95,3.11,1.98,11.52,1.77,14.55-1.37,4.28-4.44,10.39-5.81,15.94-8.04,1.27-.51,2.65.26,3.98.46" style="fill: none; stroke: rgb(0, 0, 0); stroke-linecap: round; stroke-linejoin: round; stroke-width: 2px;" class="svg-elem-138"></path>
  <path d="M157.12,279.72c2.54,5.65,5.05,11.32,8.5,16.5" style="fill: none; stroke: rgb(0, 0, 0); stroke-linecap: round; stroke-linejoin: round; stroke-width: 2px;" class="svg-elem-139"></path>
  <path d="M111.62,169.22c-.13,6.01-.9,12.09.59,17.98.96,3.82-.85,8.05,1.91,11.52" style="fill: none; stroke: rgb(0, 0, 0); stroke-linecap: round; stroke-linejoin: round; stroke-width: 2px;" class="svg-elem-140"></path>
  <path d="M226.62,571.22c5.42,3.13,10.01,7.48,15.49,10.8,1.46-2.66-1.26-3.89-1.49-5.8" style="fill: none; stroke: rgb(0, 0, 0); stroke-linecap: round; stroke-linejoin: round; stroke-width: 2px;" class="svg-elem-141"></path>
  <path d="M328.12,606.22c.37,5.95-.47,11.47-5.5,15.5" style="fill: none; stroke: rgb(0, 0, 0); stroke-linecap: round; stroke-linejoin: round; stroke-width: 2px;" class="svg-elem-142"></path>
  <path d="M321.12,168.22c-6.54,5-14.18,3.79-21.49,3.32-3.12-.2-6.36.04-9.57-1.18-3.74-1.42-5.38-3.01-4.44-6.65.64-2.47,2.73-4.66,1.49-7.5" style="fill: none; stroke: rgb(0, 0, 0); stroke-linecap: round; stroke-linejoin: round; stroke-width: 2px;" class="svg-elem-143"></path>
  <path d="M331.12,626.72c2.82,4.09,5.81,5.77,11.56,4.87,6.61-1.03,13.65.8,19.44,5.13" style="fill: none; stroke: rgb(0, 0, 0); stroke-linecap: round; stroke-linejoin: round; stroke-width: 2px;" class="svg-elem-144"></path>
  <path d="M162.62,98.72c-3.16,4.95-6.98,9.09-13,10.5" style="fill: none; stroke: rgb(0, 0, 0); stroke-linecap: round; stroke-linejoin: round; stroke-width: 2px;" class="svg-elem-145"></path>
  <path d="M229.62,163.22c1.47,2.5,1.68,5.09-.04,7.47-1.86,2.59-4.39,2.73-7.49,2.13-4.61-.89-9.41-.73-13.98-2.11" style="fill: none; stroke: rgb(0, 0, 0); stroke-linecap: round; stroke-linejoin: round; stroke-width: 2px;" class="svg-elem-146"></path>
  <path d="M177.62,313.22c2.91,3.85,1.71,9.11,4.52,13.31,5.01-3.71,5.83.76,7.48,3.69" style="fill: none; stroke: rgb(0, 0, 0); stroke-linecap: round; stroke-linejoin: round; stroke-width: 2px;" class="svg-elem-147"></path>
  <path d="M323.62,169.22c-1.06.02-1.48-.91-1.97-1.52-6.47-8.1-18.32-9.91-28.53-3.49-.12.08-.33,0-.49,0" style="fill: none; stroke: rgb(0, 0, 0); stroke-linecap: round; stroke-linejoin: round; stroke-width: 2px;" class="svg-elem-148"></path>
  <path d="M319.62,243.22c1.22,4.15-.3,9.07,3.05,12.65,2.64-.85,3-2.98,3.95-4.65" style="fill: none; stroke: rgb(0, 0, 0); stroke-linecap: round; stroke-linejoin: round; stroke-width: 2px;" class="svg-elem-149"></path>
  <path d="M251.62,153.22c-1.73,3.11-.29,6.08.55,8.98.98,3.39.27,5.21-3.55,5.02" style="fill: none; stroke: rgb(0, 0, 0); stroke-linecap: round; stroke-linejoin: round; stroke-width: 2px;" class="svg-elem-150"></path>
  <path d="M173.62,233.22c2.32,4.84,5.63,8.86,10,12" style="fill: none; stroke: rgb(0, 0, 0); stroke-linecap: round; stroke-linejoin: round; stroke-width: 2px;" class="svg-elem-151"></path>
  <path d="M166.12,461.72c2.44,2.33,3.49,5.34,4.59,8.47,1.7,4.82,4.8,8.89,8.41,12.53" style="fill: none; stroke: rgb(0, 0, 0); stroke-linecap: round; stroke-linejoin: round; stroke-width: 2px;" class="svg-elem-152"></path>
  <path d="M249.12,602.72c-6.14.61-9.94,5.2-14.5,8.5" style="fill: none; stroke: rgb(0, 0, 0); stroke-linecap: round; stroke-linejoin: round; stroke-width: 2px;" class="svg-elem-153"></path>
  <path d="M328.62,255.22c-1.07,1.81.06,3.59,1.08,4.4,3.49,2.79,4.45,6.79,5.92,10.6" style="fill: none; stroke: rgb(0, 0, 0); stroke-linecap: round; stroke-linejoin: round; stroke-width: 2px;" class="svg-elem-154"></path>
  <path d="M294.12,594.72c1.64,5.32,4.83,9.93,7,15" style="fill: none; stroke: rgb(0, 0, 0); stroke-linecap: round; stroke-linejoin: round; stroke-width: 2px;" class="svg-elem-155"></path>
  <path d="M45.62,638.22c-2.51,3.38-4.4,7.18-7,10.5" style="fill: none; stroke: rgb(0, 0, 0); stroke-linecap: round; stroke-linejoin: round; stroke-width: 2px;" class="svg-elem-156"></path>
  <path d="M328.62,147.22c3.32,5.61,3.56,11.74,3,18" style="fill: none; stroke: rgb(0, 0, 0); stroke-linecap: round; stroke-linejoin: round; stroke-width: 2px;" class="svg-elem-157"></path>
  <path d="M308.62,161.72c2.39,4.02.07,6.79-2.5,9.5" style="fill: none; stroke: rgb(0, 0, 0); stroke-linecap: round; stroke-linejoin: round; stroke-width: 2px;" class="svg-elem-158"></path>
  <path d="M248.62,46.22c2.42,3.25,5.25,6.08,8.5,8.5" style="fill: none; stroke: rgb(0, 0, 0); stroke-linecap: round; stroke-linejoin: round; stroke-width: 2px;" class="svg-elem-159"></path>
  <path d="M254.62,228.22c3.68.95,7.02,3.16,11,3" style="fill: none; stroke: rgb(0, 0, 0); stroke-linecap: round; stroke-linejoin: round; stroke-width: 2px;" class="svg-elem-160"></path>
  <path d="M275.62,351.22c-2.4,5-2.39,10,0,15" style="fill: none; stroke: rgb(0, 0, 0); stroke-linecap: round; stroke-linejoin: round; stroke-width: 2px;" class="svg-elem-161"></path>
  <path d="M358.62,943.22c-1.83,1.66-3.99,1.37-5.43-.07-2.52-2.52-5.48-2.48-8.57-2.43" style="fill: none; stroke: rgb(0, 0, 0); stroke-linecap: round; stroke-linejoin: round; stroke-width: 2px;" class="svg-elem-162"></path>
  <path d="M302.12,250.72c-3.02,1.57-4.48,4.93-7.5,6.5" style="fill: none; stroke: rgb(0, 0, 0); stroke-linecap: round; stroke-linejoin: round; stroke-width: 2px;" class="svg-elem-163"></path>
  <path d="M175.62,296.22c-2.33,4.18-5.05,8.33-1,13" style="fill: none; stroke: rgb(0, 0, 0); stroke-linecap: round; stroke-linejoin: round; stroke-width: 2px;" class="svg-elem-164"></path>
  <path d="M217.12,164.72c-1.64,2.99,1.12,4.73,2,7" style="fill: none; stroke: rgb(0, 0, 0); stroke-linecap: round; stroke-linejoin: round; stroke-width: 2px;" class="svg-elem-165"></path>
  <path d="M222.62,252.22c1.65,1.79,2.56,4.07,4,6" style="fill: none; stroke: rgb(0, 0, 0); stroke-linecap: round; stroke-linejoin: round; stroke-width: 2px;" class="svg-elem-166"></path>
  <path d="M295.62,163.72c.04,2.11-.42,4.36,1.5,6" style="fill: none; stroke: rgb(0, 0, 0); stroke-linecap: round; stroke-linejoin: round; stroke-width: 2px;" class="svg-elem-167"></path>
  <path d="M234.62,160.22c-1.99.23-4.07-.55-6,.5" style="fill: none; stroke: rgb(0, 0, 0); stroke-linecap: round; stroke-linejoin: round; stroke-width: 2px;" class="svg-elem-168"></path>
  <path d="M163.62,467.22c2.16.9,3.19,3.72,6,3.5" style="fill: none; stroke: rgb(0, 0, 0); stroke-linecap: round; stroke-linejoin: round; stroke-width: 2px;" class="svg-elem-169"></path>
  <path d="M320.62,547.72c3.14,1.8,6.12,3.76,8,7" style="fill: none; stroke: rgb(0, 0, 0); stroke-linecap: round; stroke-linejoin: round; stroke-width: 2px;" class="svg-elem-170"></path>
  <path d="M156.62,439.22c.96,1.66,1.26,3.83,3.5,4.5" style="fill: none; stroke: rgb(0, 0, 0); stroke-linecap: round; stroke-linejoin: round; stroke-width: 2px;" class="svg-elem-171"></path>
  <path d="M119.12,334.22c1.21,1.45-.39,3.75,1.5,5" style="fill: none; stroke: rgb(0, 0, 0); stroke-linecap: round; stroke-linejoin: round; stroke-width: 2px;" class="svg-elem-172"></path>
  <path d="M228.62,161.72c1.92.83,4.04.83,6,1.5" style="fill: none; stroke: rgb(0, 0, 0); stroke-linecap: round; stroke-linejoin: round; stroke-width: 2px;" class="svg-elem-173"></path>
  <path d="M321.62,616.22c.34,2.06-3.88,2.88-1.5,5.5" style="fill: none; stroke: rgb(0, 0, 0); stroke-linecap: round; stroke-linejoin: round; stroke-width: 2px;" class="svg-elem-174"></path>
  <path d="M348.12,632.72c.41,1.89,2.37,1.61,3.5,2.5" style="fill: none; stroke: rgb(0, 0, 0); stroke-linecap: round; stroke-linejoin: round; stroke-width: 2px;" class="svg-elem-175"></path>
  <path d="M364.62,748.22c-.16,1.31-2.14,1.84-1.5,3.5" style="fill: none; stroke: rgb(0, 0, 0); stroke-linecap: round; stroke-linejoin: round; stroke-width: 2px;" class="svg-elem-176"></path>
  <path d="M288.62,153.22c.24,2.27-2.75,2.1-3,4" style="fill: none; stroke: rgb(0, 0, 0); stroke-linecap: round; stroke-linejoin: round; stroke-width: 2px;" class="svg-elem-177"></path>
  <path d="M317.12,356.22c1.39,1.82-.17,3.35-.5,5" style="fill: none; stroke: rgb(0, 0, 0); stroke-linecap: round; stroke-linejoin: round; stroke-width: 2px;" class="svg-elem-178"></path>
  <path d="M164.62,96.72c-1.04,1.27-2.41,1.69-4,1.5" style="fill: none; stroke: rgb(0, 0, 0); stroke-linecap: round; stroke-linejoin: round; stroke-width: 2px;" class="svg-elem-179"></path>
</svg>